# xmcd
#
# Track frame offsets:
#	150
#	13146
#	31191
#	44015
#	59236
#	72015
#	84599
#	95782
#	107835
#	119421
#	133231
#	147685
#
# Disc length: 2136 seconds
#
# Revision: 1
# Processed by: cddbd v1.4PL0 Copyright (c) Steve Scherf et al.
# Submitted via: audiograbber 1.81.03
#
DISCID=bd08560c
DTITLE=Liv Marit Wedvik - Hitchin` A Ride
DYEAR=2003
DGENRE=Country
TTITLE0=Hitchin` A Ride
TTITLE1=The Cold Hard Truth
TTITLE2=What Do You Know About Love
TTITLE3=The Last Time
TTITLE4=Lodi
TTITLE5=Everybody Loves A Winner
TTITLE6=To Know Him Is To Love Him
TTITLE7=Oh Lonsome Me
TTITLE8=Hot Love
TTITLE9=Don`t Think Twice
TTITLE10=Saved By The Bel
TTITLE11=Sea Cruise
EXTD=
EXTT0=
EXTT1=
EXTT2=
EXTT3=
EXTT4=
EXTT5=
EXTT6=
EXTT7=
EXTT8=
EXTT9=
EXTT10=
EXTT11=
PLAYORDER=
